<svg xmlns="http://www.w3.org/2000/svg" width="20.967" height="20.967" viewBox="0 0 16.078 16.223">
  <g id="Bell" transform="translate(-1.071 -0.778)">
    <path id="Path_29" data-name="Path 29" d="M45.915,8.659a.248.248,0,0,0,0,.5A1.583,1.583,0,0,1,47.5,10.735a.248.248,0,0,0,.5,0A2.079,2.079,0,0,0,45.915,8.659Z" transform="translate(-33.172 -5.552)" fill="none" stroke="#444343" stroke-width="1"/>
    <path id="Path_30" data-name="Path 30" d="M8.952,10.735a.248.248,0,0,0,.5,0,1.583,1.583,0,0,1,1.581-1.581.248.248,0,0,0,0-.5A2.079,2.079,0,0,0,8.952,10.735Z" transform="translate(-5.552 -5.552)" fill="none" stroke="#444343" stroke-width="1"/>
    <path id="Path_31" data-name="Path 31" d="M47.391,1.278a.248.248,0,0,0,0,.5,3.047,3.047,0,0,1,3.044,3.044.248.248,0,1,0,.5,0A3.543,3.543,0,0,0,47.391,1.278Z" transform="translate(-34.282 0)" fill="none" stroke="#444343" stroke-width="1"/>
    <path id="Path_32" data-name="Path 32" d="M5.358,1.526a.248.248,0,0,0-.248-.248A3.543,3.543,0,0,0,1.571,4.817a.248.248,0,1,0,.5,0A3.047,3.047,0,0,1,5.11,1.773.248.248,0,0,0,5.358,1.526Z" transform="translate(0 0)" fill="none" stroke="#444343" stroke-width="1"/>
    <path id="Path_33" data-name="Path 33" d="M19.455,16.5a.531.531,0,0,0-.164-.234c.006-.151.01-.3.01-.456,0-3.374-1.4-6.232-3.328-7.212a1.515,1.515,0,1,0-2.939,0C11.1,9.581,9.7,12.438,9.7,15.813c0,.153,0,.305.01.456a.531.531,0,0,0-.164.234L8.832,18.65a.537.537,0,0,0,.509.707h3.5a1.734,1.734,0,0,0,3.323,0h3.5a.537.537,0,0,0,.509-.707ZM13.262,9.051l.358-.182-.1-.39a1.01,1.01,0,1,1,1.958,0l-.1.39.358.182c1.8.912,3.052,3.693,3.052,6.762q0,.155,0,.314H10.214q0-.159,0-.314C10.21,12.744,11.465,9.963,13.262,9.051ZM14.5,20.1a1.241,1.241,0,0,1-1.135-.743h2.271A1.241,1.241,0,0,1,14.5,20.1ZM19.7,18.845a.038.038,0,0,1-.034.017H9.342a.041.041,0,0,1-.039-.054l.718-2.147a.041.041,0,0,1,.039-.028h8.886a.041.041,0,0,1,.039.028l.718,2.147A.038.038,0,0,1,19.7,18.845Z" transform="translate(-5.441 -4.095)" fill="none" stroke="#444343" stroke-width="1"/>
  </g>
</svg>
