<svg xmlns="http://www.w3.org/2000/svg" width="100.967" height="100.967" viewBox="0 0 20.967 20.967">
  <g id="Group_119" data-name="Group 119" transform="translate(0.024 -1.336)">
    <circle id="Ellipse_22" data-name="Ellipse 22" cx="10.484" cy="10.484" r="10.484" transform="translate(-0.024 1.336)" fill="#a7a3a3"/>
    <path id="XMLID_16_" d="M14.612,12.632a.666.666,0,0,0-.537-.453l-4.253-.618L7.92,7.707a.666.666,0,0,0-1.194,0l-1.9,3.854-4.253.618A.666.666,0,0,0,.2,13.315l3.077,3L2.553,20.55a.666.666,0,0,0,.966.7l3.8-2,3.8,2a.674.674,0,0,0,.312.076.666.666,0,0,0,.648-.815l-.72-4.2,3.077-3A.666.666,0,0,0,14.612,12.632Z" transform="translate(3.09 -2.885)" fill="#444343"/>
  </g>
</svg>
