<svg xmlns="http://www.w3.org/2000/svg" width="100.991" height="100.993" viewBox="0 0 19.991 19.993">
  <g id="XMLID_22_" transform="translate(-0.003)">
    <path id="XMLID_143_" d="M22,29.211v.427c0,2.389-4.012,4.326-8.961,4.326a14.311,14.311,0,0,1-6.82-1.521c.554,2.152,4.321,3.934,8.888,3.934,4.949,0,8.961-2.091,8.961-4.481,0-1.051-.778-1.976-2.068-2.685" transform="translate(-4.071 -19.143)" fill="#fcc62d"/>
    <path id="XMLID_142_" d="M14.964,41.481C10.015,41.481,6,39.389,6,37v2.912c0,2.389,4.012,4.326,8.961,4.326s8.961-1.937,8.961-4.326V37c0,2.389-4.012,4.481-8.961,4.481" transform="translate(-3.932 -24.247)" fill="#e4af18"/>
    <path id="XMLID_141_" d="M9,45.878a5.6,5.6,0,0,0,.689.533V43.552A5.727,5.727,0,0,1,9,43Z" transform="translate(-5.898 -28.179)" fill="#ce9912"/>
    <path id="XMLID_140_" d="M53,43.552V46.41a5.568,5.568,0,0,0,.689-.533V43a5.675,5.675,0,0,1-.689.552" transform="translate(-34.733 -28.179)" fill="#ce9912"/>
    <path id="XMLID_139_" d="M13,48.661q.327.169.689.32V46.157Q13.33,46,13,45.821Z" transform="translate(-8.519 -30.028)" fill="#ce9912"/>
    <path id="XMLID_138_" d="M49,48.98q.362-.151.689-.32V45.82q-.327.177-.689.336Z" transform="translate(-32.111 -30.027)" fill="#ce9912"/>
    <path id="XMLID_137_" d="M17,50.4q.334.114.689.213v-2.8q-.355-.105-.689-.226Z" transform="translate(-11.141 -31.19)" fill="#ce9912"/>
    <path id="XMLID_136_" d="M45,50.617q.355-.1.689-.213V47.594q-.334.12-.689.226Z" transform="translate(-29.49 -31.19)" fill="#ce9912"/>
    <path id="XMLID_135_" d="M22,51.8c.225.046.455.086.689.122V49.147c-.234-.039-.464-.082-.689-.131Z" transform="translate(-14.417 -32.122)" fill="#ce9912"/>
    <path id="XMLID_134_" d="M40,51.918c.234-.037.464-.077.689-.122V49.015c-.225.048-.455.092-.689.131Z" transform="translate(-26.213 -32.121)" fill="#ce9912"/>
    <path id="XMLID_133_" d="M28,52.649c.227.017.457.029.689.037V49.928c-.232-.009-.463-.021-.689-.04Z" transform="translate(-18.349 -32.693)" fill="#ce9912"/>
    <path id="XMLID_132_" d="M34,52.686c.232-.009.463-.02.689-.037V49.888c-.227.018-.457.031-.689.04Z" transform="translate(-22.281 -32.693)" fill="#ce9912"/>
    <path id="XMLID_131_" d="M8.964,26.474C4.015,26.474,0,24.382,0,21.993V24.9c0,2.389,4.012,4.326,8.961,4.326s8.961-1.937,8.961-4.326V21.993c0,2.389-4.012,4.481-8.961,4.481" transform="translate(0 -14.413)" fill="#e4af18"/>
    <path id="XMLID_130_" d="M3,30.871a5.6,5.6,0,0,0,.689.533V28.546A5.76,5.76,0,0,1,3,27.994Z" transform="translate(-1.966 -18.345)" fill="#ce9912"/>
    <path id="XMLID_129_" d="M47,28.545V31.4a5.568,5.568,0,0,0,.689-.533V27.993a5.673,5.673,0,0,1-.689.552" transform="translate(-30.801 -18.345)" fill="#ce9912"/>
    <path id="XMLID_128_" d="M7,33.654q.327.169.689.32V31.15Q7.33,30.991,7,30.814Z" transform="translate(-4.587 -20.193)" fill="#ce9912"/>
    <path id="XMLID_127_" d="M43,33.973q.362-.151.689-.32v-2.84q-.327.177-.689.336Z" transform="translate(-28.179 -20.193)" fill="#ce9912"/>
    <path id="XMLID_126_" d="M11,35.4q.334.114.689.213v-2.8q-.355-.105-.689-.226Z" transform="translate(-7.209 -21.355)" fill="#ce9912"/>
    <path id="XMLID_125_" d="M39,35.61q.355-.1.689-.213V32.587q-.334.12-.689.226Z" transform="translate(-25.558 -21.355)" fill="#ce9912"/>
    <path id="XMLID_124_" d="M16,36.79c.225.045.455.086.689.122V34.14c-.234-.039-.464-.082-.689-.131Z" transform="translate(-10.485 -22.287)" fill="#ce9912"/>
    <path id="XMLID_123_" d="M34,36.912c.234-.037.464-.077.689-.122V34.009c-.225.048-.455.092-.689.131Z" transform="translate(-22.281 -22.287)" fill="#ce9912"/>
    <path id="XMLID_122_" d="M22,37.643c.227.017.457.029.689.037V34.922c-.232-.009-.463-.021-.689-.04Z" transform="translate(-14.417 -22.859)" fill="#ce9912"/>
    <path id="XMLID_121_" d="M28,37.679c.232-.009.463-.02.689-.037V34.881c-.227.018-.457.031-.689.04Z" transform="translate(-18.349 -22.859)" fill="#ce9912"/>
    <path id="XMLID_120_" d="M26.421,33.3c-.923,1.915-4.478,3.343-8.726,3.343a16.916,16.916,0,0,1-4.369-.549,11.813,11.813,0,0,0,6.437,1.571c4.716,0,7.583-1.831,7.583-3.09a1.727,1.727,0,0,0-.925-1.275" transform="translate(-8.731 -21.824)" fill="#ffd949"/>
    <path id="XMLID_119_" d="M10.688,21.07c-4.949,0-8.961-1.937-8.961-4.326V14.8A3.083,3.083,0,0,0,0,17.279c0,2.389,4.012,4.481,8.961,4.481A14.542,14.542,0,0,0,15.116,20.5a16.855,16.855,0,0,1-4.429.566" transform="translate(0 -9.696)" fill="#ffd949"/>
    <path id="XMLID_118_" d="M13.964,16.474C9.015,16.474,5,14.382,5,11.993V14.9c0,2.389,4.012,4.326,8.961,4.326s8.961-1.937,8.961-4.326V11.993c0,2.389-4.012,4.481-8.961,4.481" transform="translate(-3.277 -7.859)" fill="#e4af18"/>
    <path id="XMLID_117_" d="M8,20.871a5.6,5.6,0,0,0,.689.533V18.546A5.76,5.76,0,0,1,8,17.994Z" transform="translate(-5.243 -11.792)" fill="#ce9912"/>
    <path id="XMLID_116_" d="M52,18.545V21.4a5.568,5.568,0,0,0,.689-.533V17.993a5.673,5.673,0,0,1-.689.552" transform="translate(-34.077 -11.791)" fill="#ce9912"/>
    <path id="XMLID_115_" d="M12,23.654q.327.169.689.32V21.15q-.362-.159-.689-.336Z" transform="translate(-7.864 -13.64)" fill="#ce9912"/>
    <path id="XMLID_114_" d="M48,23.973q.362-.151.689-.32v-2.84q-.327.177-.689.336Z" transform="translate(-31.456 -13.639)" fill="#ce9912"/>
    <path id="XMLID_113_" d="M16,25.4q.334.114.689.213v-2.8q-.355-.105-.689-.226Z" transform="translate(-10.485 -14.802)" fill="#ce9912"/>
    <path id="XMLID_112_" d="M44,25.61q.355-.1.689-.213V22.587q-.334.12-.689.226Z" transform="translate(-28.835 -14.802)" fill="#ce9912"/>
    <path id="XMLID_111_" d="M21,26.79c.225.045.455.086.689.122V24.14c-.234-.039-.464-.082-.689-.131Z" transform="translate(-13.762 -15.734)" fill="#ce9912"/>
    <path id="XMLID_110_" d="M39,26.912c.234-.037.464-.077.689-.122V24.009q-.338.072-.689.131Z" transform="translate(-25.558 -15.734)" fill="#ce9912"/>
    <path id="XMLID_109_" d="M27,27.643c.227.017.457.029.689.037V24.922c-.232-.009-.463-.021-.689-.04Z" transform="translate(-17.694 -16.306)" fill="#ce9912"/>
    <path id="XMLID_108_" d="M33,27.679c.232-.009.463-.02.689-.037V24.881c-.227.018-.457.031-.689.04Z" transform="translate(-21.626 -16.305)" fill="#ce9912"/>
    <path id="XMLID_107_" d="M22.926,4.136c0,2.389-4.012,4.481-8.961,4.481S5,6.525,5,4.136,9.015,0,13.964,0s8.961,1.747,8.961,4.136" transform="translate(-3.277)" fill="#fcc62d"/>
    <path id="XMLID_106_" d="M16.586,9.192C11.87,9.192,9,7.362,9,6.1S11.87,3,16.586,3s7.583,1.842,7.583,3.1-2.867,3.09-7.583,3.09" transform="translate(-5.898 -1.966)" fill="#ffd949"/>
    <path id="XMLID_105_" d="M27.443,9.192c.283-.06.448-.234.387-.433l-.065-.212A.645.645,0,0,0,27.3,8.2c-.311-.664-1.1-.9-2.281-.9-.056,0-.11,0-.164,0a3.008,3.008,0,0,1-1.115-.136,1.246,1.246,0,0,1-.3-.146c-.031-.023-.106-.008-.106.021a1.074,1.074,0,0,0,.015.176c.043.257-.008.219-.263.476a1.737,1.737,0,0,0-.35.512.645.645,0,0,0-.46.351l-.065.212c-.061.2.1.373.387.433a1.529,1.529,0,0,0,1.18,1.2l-.041.357a.3.3,0,0,1-.213.227L22,11.527a14.743,14.743,0,0,0,3.017.3,14.812,14.812,0,0,0,2.98-.29l-1.487-.556a.3.3,0,0,1-.209-.225l-.042-.36a1.529,1.529,0,0,0,1.18-1.2" transform="translate(-14.418 -4.588)" fill="#f0c41b"/>
  </g>
</svg>
