<svg xmlns="http://www.w3.org/2000/svg" width="22.769" height="17.179" viewBox="0 0 22.769 17.179">
  <g id="credit-card-svgrepo-com" transform="translate(0.5 0.5)">
    <g id="Group_115" data-name="Group 115">
      <path id="Path_39" data-name="Path 39" d="M19.753,81.1H2.016A2.184,2.184,0,0,0,0,83.425v2.032H21.769V83.425A2.184,2.184,0,0,0,19.753,81.1Z" transform="translate(0 -81.104)" fill="none" stroke="#fff" stroke-width="1"/>
      <path id="Path_40" data-name="Path 40" d="M0,212.61a2.184,2.184,0,0,0,2.016,2.321H19.753a2.184,2.184,0,0,0,2.016-2.321v-7.04H0Zm14.929-4.619a1.651,1.651,0,0,1,1.095.425,1.652,1.652,0,0,1,1.095-.425,2.1,2.1,0,0,1,0,4.161,1.652,1.652,0,0,1-1.095-.426,1.652,1.652,0,0,1-1.095.426,2.1,2.1,0,0,1,0-4.161Zm-12,2.843a.3.3,0,0,1,.272-.313H7.4a.3.3,0,0,1,.272.313v.953a.3.3,0,0,1-.272.313H3.2a.3.3,0,0,1-.272-.313Z" transform="translate(0 -198.752)" fill="none" stroke="#fff" stroke-width="1"/>
    </g>
  </g>
</svg>
