<svg xmlns="http://www.w3.org/2000/svg" width="15.022" height="13" viewBox="0 0 15.022 13">
  <path id="heart-svgrepo-com_2_" data-name="heart-svgrepo-com (2)" d="M15.022,19.174c0,1.862-1.017,3.381-3.109,4.645a13.428,13.428,0,0,0-3.949,3.535.544.544,0,0,1-.907,0,13.535,13.535,0,0,0-3.949-3.535C1.017,22.555,0,21.036,0,19.174,0,16.956,1.434,14.6,4.092,14.6a4.537,4.537,0,0,1,3.419,1.39A4.537,4.537,0,0,1,10.93,14.6C13.588,14.6,15.022,16.956,15.022,19.174Z" transform="translate(0 -14.598)" fill="#340f63"/>
</svg>
