<svg id="XMLID_1055_" xmlns="http://www.w3.org/2000/svg" width="17.328" height="17.328" viewBox="0 0 17.328 17.328">
  <g id="Group_61" data-name="Group 61">
    <path id="Path_47" data-name="Path 47" d="M8.664,0a8.664,8.664,0,1,0,8.664,8.664A8.664,8.664,0,0,0,8.664,0Zm1.444,14.215a.592.592,0,0,1-.592.592H7.893a.592.592,0,0,1-.592-.592V7.627a.592.592,0,0,1,.592-.592H9.516a.592.592,0,0,1,.592.592Zm-1.444-8.3a1.469,1.469,0,1,1,1.469-1.469A1.469,1.469,0,0,1,8.664,5.914Z" fill="#340f63"/>
  </g>
</svg>
