<svg xmlns="http://www.w3.org/2000/svg" width="24.629" height="19.161" viewBox="0 0 24.629 19.161">
  <g id="mastercard-2-logo-svgrepo-com" transform="translate(0 0.001)">
    <path id="Path_61" data-name="Path 61" d="M126.426,1319.782v.049h.046a.051.051,0,0,0,.025-.006.022.022,0,0,0,.009-.019.021.021,0,0,0-.009-.018.043.043,0,0,0-.025-.006h-.046Zm.046-.035a.086.086,0,0,1,.055.016.053.053,0,0,1,.019.043.05.05,0,0,1-.016.038.076.076,0,0,1-.044.018l.062.07H126.5l-.057-.07h-.018v.07h-.04v-.186h.086Zm-.012.251a.145.145,0,0,0,.06-.012.158.158,0,0,0,.049-.033.156.156,0,0,0,.033-.049.159.159,0,0,0,0-.122.163.163,0,0,0-.033-.049.158.158,0,0,0-.049-.033.153.153,0,0,0-.06-.012.155.155,0,0,0-.145.217.147.147,0,0,0,.033.049.158.158,0,0,0,.05.033.15.15,0,0,0,.062.012m0-.357a.206.206,0,0,1,.145.059.2.2,0,0,1,.044.22.206.206,0,0,1-.044.064.221.221,0,0,1-.065.043.2.2,0,0,1-.08.016.2.2,0,0,1-.081-.016.193.193,0,0,1-.108-.109.2.2,0,0,1,.044-.22.194.194,0,0,1,.065-.043.2.2,0,0,1,.081-.016m-18.854-.717a.612.612,0,1,1,.613.647.606.606,0,0,1-.613-.647m1.636,0v-1.011H108.8v.246a.766.766,0,0,0-.638-.3,1.062,1.062,0,0,0,0,2.122.767.767,0,0,0,.638-.3v.245h.439v-1.011Zm14.848,0a.612.612,0,1,1,.613.647.606.606,0,0,1-.613-.647m1.637,0V1317.1h-.44v1.058a.766.766,0,0,0-.638-.3,1.062,1.062,0,0,0,0,2.122.766.766,0,0,0,.638-.3v.245h.44Zm-11.031-.668a.5.5,0,0,1,.511.49h-1.049a.52.52,0,0,1,.537-.49m.009-.394a1.062,1.062,0,0,0,.029,2.123,1.227,1.227,0,0,0,.828-.283l-.215-.326a.963.963,0,0,1-.588.211.561.561,0,0,1-.6-.495h1.5c0-.055.009-.11.009-.169a.97.97,0,0,0-.96-1.061m5.306,1.061a.612.612,0,1,1,.613.647.607.607,0,0,1-.613-.647m1.636,0v-1.01h-.439v.246a.766.766,0,0,0-.638-.3,1.062,1.062,0,0,0,0,2.122.767.767,0,0,0,.638-.3v.245h.439v-1.011Zm-4.118,0a1.021,1.021,0,0,0,1.078,1.061,1.057,1.057,0,0,0,.726-.241l-.211-.355a.889.889,0,0,1-.529.182.648.648,0,0,1,0-1.294.89.89,0,0,1,.529.182l.211-.355a1.057,1.057,0,0,0-.726-.241,1.021,1.021,0,0,0-1.078,1.061m5.665-1.061a.6.6,0,0,0-.533.3v-.245h-.436v2.021h.44V1318.8c0-.334.144-.52.431-.52a.713.713,0,0,1,.275.051l.135-.414a.934.934,0,0,0-.313-.055m-11.779.211a1.511,1.511,0,0,0-.824-.211c-.512,0-.842.245-.842.647,0,.329.245.533.7.6l.208.03c.241.034.355.1.355.211,0,.156-.16.245-.461.245a1.076,1.076,0,0,1-.672-.211l-.206.343a1.458,1.458,0,0,0,.875.262c.584,0,.922-.275.922-.66,0-.355-.266-.541-.706-.6l-.207-.03c-.19-.025-.343-.063-.343-.2s.144-.237.385-.237a1.3,1.3,0,0,1,.63.173l.19-.355Zm5.67-.211a.6.6,0,0,0-.532.3v-.246h-.436v2.021h.439V1318.8c0-.334.144-.52.431-.52a.713.713,0,0,1,.275.051l.135-.414a.934.934,0,0,0-.313-.055m-3.75.051h-.719v-.613h-.444v.613h-.41v.4h.41v.922c0,.469.182.748.7.748a1.033,1.033,0,0,0,.55-.156l-.127-.376a.813.813,0,0,1-.389.114c-.22,0-.291-.135-.291-.338v-.913h.719Zm-6.57,2.021v-1.268a.752.752,0,0,0-.8-.8.782.782,0,0,0-.71.36.742.742,0,0,0-.668-.36.668.668,0,0,0-.592.3v-.25h-.44v2.021H104v-1.12a.473.473,0,0,1,.495-.537c.292,0,.439.19.439.533v1.125h.444v-1.12a.477.477,0,0,1,.494-.537c.3,0,.443.19.443.533v1.125Z" transform="translate(-102.285 -1300.883)" fill="#231f20"/>
    <path id="Path_62" data-name="Path 62" d="M1929.491,977.515v-.3h-.077l-.089.2-.088-.2h-.077v.3h.055v-.223l.083.192h.057l.083-.193v.223h.054Zm-.488,0v-.245h.1v-.05h-.252v.05h.1v.245H1929Z" transform="translate(-1905.1 -965.188)" fill="#f79410"/>
    <path id="Path_63" data-name="Path 63" d="M736.37,144.118h-6.66V132.15h6.66Z" transform="translate(-720.725 -130.524)" fill="#ff5f00"/>
    <path id="Path_64" data-name="Path 64" d="M9.407,7.611a7.6,7.6,0,0,1,2.907-5.984,7.611,7.611,0,1,0,0,11.968A7.6,7.6,0,0,1,9.407,7.611" transform="translate(0 0)" fill="#eb001b"/>
    <path id="Path_65" data-name="Path 65" d="M1012.425,7.611a7.611,7.611,0,0,1-12.315,5.984,7.612,7.612,0,0,0,0-11.968,7.611,7.611,0,0,1,12.315,5.984" transform="translate(-987.796 0)" fill="#f79e1b"/>
  </g>
</svg>
