<svg xmlns="http://www.w3.org/2000/svg" width="21.96" height="21.998" viewBox="0 0 21.96 21.998">
  <g id="Action_3" data-name="Action 3" transform="translate(0.5 0.5)">
    <g id="Action_1" data-name="Action 1" transform="translate(0 0)">
      <path id="compose" d="M17.349,20.94H0V3.6H13.7l-.913.913H.913V20.027H16.436V8.162l.913-.912V20.939Zm-10.283-7.1h0l.463-1.661.463-1.664L12.5,6.046,17,1.572l.4.393.4.4L8.783,11.308l.582.578.209.209,9.015-8.946.372.37.42.417-9.014,8.947-3.3.963ZM19.829,3.487h0l-2.376-2.36L17.78.755l.368-.417a1.176,1.176,0,0,1,1.65,0l.823.822a1.11,1.11,0,0,1,.227.341,1.152,1.152,0,0,1,0,.96,1.141,1.141,0,0,1-.227.341l-.791.684Z" fill="none" stroke="#a7a3a3" stroke-width="1"/>
    </g>
  </g>
</svg>
