<svg id="notification-svgrepo-com" xmlns="http://www.w3.org/2000/svg" width="15.083" height="15.083" viewBox="0 0 15.083 15.083">
  <g id="Group_114" data-name="Group 114">
    <path id="Path_35" data-name="Path 35" d="M343.848,0a2.514,2.514,0,1,0,2.514,2.514A2.516,2.516,0,0,0,343.848,0Z" transform="translate(-331.278)" fill="#444343"/>
    <path id="Path_36" data-name="Path 36" d="M8.8,43.923a3.756,3.756,0,0,1,.22-1.257h-6.5A2.516,2.516,0,0,0,0,45.18v8.8a2.516,2.516,0,0,0,2.514,2.514h8.8a2.516,2.516,0,0,0,2.514-2.514v-6.5A3.76,3.76,0,0,1,8.8,43.923Z" transform="translate(0 -41.409)" fill="#340f63"/>
  </g>
</svg>
