<svg xmlns="http://www.w3.org/2000/svg" width="23.018" height="23.018" viewBox="0 0 23.018 23.018">
  <g id="settings-svgrepo-com" transform="translate(0.5 0.5)">
    <path id="Path_37" data-name="Path 37" d="M20.612,8.676H19.78a9.016,9.016,0,0,0-.919-2.218l.589-.589a1.406,1.406,0,0,0,0-1.989L18.139,2.569a1.407,1.407,0,0,0-1.989,0l-.589.589a9.019,9.019,0,0,0-2.218-.919V1.407A1.407,1.407,0,0,0,11.937,0H10.083A1.407,1.407,0,0,0,8.677,1.407v.832a9.018,9.018,0,0,0-2.218.919L5.87,2.569a1.406,1.406,0,0,0-1.989,0L2.57,3.88a1.406,1.406,0,0,0,0,1.989l.589.589a9.016,9.016,0,0,0-.919,2.218H1.408A1.407,1.407,0,0,0,0,10.082v1.854a1.407,1.407,0,0,0,1.407,1.407h.832a9.02,9.02,0,0,0,.919,2.218l-.589.589a1.406,1.406,0,0,0,0,1.989l1.311,1.311a1.407,1.407,0,0,0,1.989,0l.589-.589a9.015,9.015,0,0,0,2.218.919v.832a1.407,1.407,0,0,0,1.407,1.407h1.854a1.407,1.407,0,0,0,1.407-1.407v-.832a9.019,9.019,0,0,0,2.218-.919l.589.589a1.407,1.407,0,0,0,1.989,0l1.311-1.311a1.407,1.407,0,0,0,0-1.989l-.589-.589a9.019,9.019,0,0,0,.919-2.218h.832a1.407,1.407,0,0,0,1.407-1.407V10.082A1.407,1.407,0,0,0,20.612,8.676Zm-9.6,7.368a5.034,5.034,0,1,1,5.035-5.034A5.04,5.04,0,0,1,11.01,16.043Z" transform="translate(-0.001)" fill="none" stroke="#fff" stroke-width="1"/>
    <path id="Path_38" data-name="Path 38" d="M103.68,101.2a2.48,2.48,0,1,0,2.48,2.48A2.483,2.483,0,0,0,103.68,101.2Z" transform="translate(-92.671 -92.67)" fill="none" stroke="#fff" stroke-width="1"/>
  </g>
</svg>
