<svg xmlns="http://www.w3.org/2000/svg" xmlns:xlink="http://www.w3.org/1999/xlink" wwidth="200.967" height="200.967" viewBox="0 0 13.46 13.46">
  <defs>
    <linearGradient id="linear-gradient" x1="0.732" y1="0.235" x2="0.5" y2="1" gradientUnits="objectBoundingBox">
      <stop offset="0" stop-color="#757575"/>
      <stop offset="1" stop-color="#aaa9ad"/>
    </linearGradient>
  </defs>
  <g id="Group_53" data-name="Group 53" transform="translate(0.024 -1.336)">
    <circle id="Ellipse_22" data-name="Ellipse 22" cx="6.73" cy="6.73" r="6.73" transform="translate(-0.024 1.336)" fill="#340f63"/>
    <path id="XMLID_16_" d="M9.381,10.736a.427.427,0,0,0-.345-.291l-2.73-.4L5.085,7.574a.427.427,0,0,0-.766,0L3.1,10.048l-2.73.4a.427.427,0,0,0-.237.729L2.106,13.1,1.64,15.819a.427.427,0,0,0,.62.451L4.7,14.986l2.442,1.284a.433.433,0,0,0,.2.049.428.428,0,0,0,.416-.523L7.3,13.1l1.975-1.926A.427.427,0,0,0,9.381,10.736Z" transform="translate(1.975 -4)" fill="url(#linear-gradient)"/>
  </g>
</svg>
