<svg id="casino-chip-svgrepo-com" xmlns="http://www.w3.org/2000/svg" width="15.445" height="15.445" viewBox="0 0 15.445 15.445">
  <path id="Path_34" data-name="Path 34" d="M14.915,4.928a7.624,7.624,0,1,0,.529,2.795A7.706,7.706,0,0,0,14.915,4.928Zm-.906.523-1.35.779a5.163,5.163,0,0,0-1.34-2.2l1.363-.787A6.688,6.688,0,0,1,14.009,5.45ZM11.852,7.722A4.129,4.129,0,1,1,7.722,3.593,4.134,4.134,0,0,1,11.852,7.722ZM7.722,1.03a6.7,6.7,0,0,1,1.287.127V2.733a4.981,4.981,0,0,0-2.574,0V1.157A6.7,6.7,0,0,1,7.722,1.03ZM2.763,3.244l1.363.787a5.162,5.162,0,0,0-1.34,2.2L1.435,5.45A6.7,6.7,0,0,1,2.763,3.244ZM1.357,9.782l1.371-.791a5.146,5.146,0,0,0,1.239,2.257l-1.357.784A6.692,6.692,0,0,1,1.357,9.782Zm6.365,4.633a6.7,6.7,0,0,1-1.287-.127V12.712a4.981,4.981,0,0,0,2.574,0v1.576A6.7,6.7,0,0,1,7.722,14.415Zm5.113-2.383-1.357-.784a5.145,5.145,0,0,0,1.239-2.257l1.371.791A6.685,6.685,0,0,1,12.835,12.032Z" fill="#100221"/>
  <text id="T" transform="translate(7.667 11)" fill="#100221" font-size="8" font-family="SFUIDisplay-Black, SF UI Display" font-weight="800" letter-spacing="-0.02em"><tspan x="-2.488" y="0">T</tspan></text>
</svg>
