<svg xmlns="http://www.w3.org/2000/svg" width="25" height="25" viewBox="0 0 25 25">
  <g id="user-profile-svgrepo-com" transform="translate(0.5 -3.5)">
    <g id="Group_28" data-name="Group 28" transform="translate(0 4)">
      <path id="Path_21" data-name="Path 21" d="M12,0a12,12,0,0,0,0,24c.121,0,.239-.015.36-.018l.042.008a.543.543,0,0,0,.1.01.488.488,0,0,0,.137-.019l.056-.016A11.992,11.992,0,0,0,12,0Zm7.132,20.359a.49.49,0,0,0-.307-.333l-2.632-.876c-.919-.383-1.347-1.854-1.447-2.444a3.735,3.735,0,0,0,1.31-2.428,1.339,1.339,0,0,1,.066-.4.5.5,0,0,0,.343-.3,6.709,6.709,0,0,0,.48-1.963.49.49,0,0,0-.015-.121,1.173,1.173,0,0,0-.43-.662V8.5a2.663,2.663,0,0,0-.9-2.391C15.494,5.394,14.727,4,12,4A4.692,4.692,0,0,0,7.5,8.5v2.328a1.173,1.173,0,0,0-.43.662.5.5,0,0,0-.015.121,6.709,6.709,0,0,0,.48,1.963.409.409,0,0,0,.295.283c.032.019.114.131.114.42a3.735,3.735,0,0,0,1.31,2.428c-.1.589-.523,2.059-1.413,2.431l-2.667.889a.5.5,0,0,0-.311.33,11,11,0,1,1,14.269,0Z" fill="none" stroke="#a7a3a3" stroke-width="1"/>
    </g>
  </g>
</svg>
